<svg id="icons" xmlns="http://www.w3.org/2000/svg" viewBox="0 0 340 340"><path d="M46.184,162.566S32.89,178.3,22.011,191.058A30.241,30.241,0,0,0,15,207.136c-1.208,10.718-3.065,31.972-.3,48.577a129.523,129.523,0,0,0,7.1,23.049,22.479,22.479,0,0,1,1.687,8.64V311.35H98.124V277.329s18.038-19.282,3.11-46.03v-52.25Z" style="fill:#ffd5bd"/><path d="M101.234,231.3V226.57H49.524l12.683,34.708a10.19,10.19,0,0,0,15.99,4.475c7.945-6.579,8.085-17.112,8.085-17.112h20.649A44.784,44.784,0,0,0,101.234,231.3Z" style="fill:#e58e6c"/><path d="M68.989,28.65S42.852,29.905,42.852,60.342V218.568l26.137-17.861Z" style="fill:#4e73a8"/><path d="M60.713,200.707a17.861,17.861,0,0,0-17.858,17.52c-.188,10.01,8.315,18.2,18.326,18.2h124.6a.718.718,0,0,0,.34-1.353c-3.9-2.023-9.8-6.7-9.8-16.508,0-14.664,13.178-17.862,13.178-17.862Z" style="fill:#eaf5ff"/><path d="M189.5,200.707H68.989V28.65H176.708A12.79,12.79,0,0,1,189.5,41.441Z" style="fill:#88b0ea"/><polygon points="259.543 268.602 259.543 182.429 233.29 182.429 233.29 268.602 217.458 268.602 246.416 310.575 275.375 268.602 259.543 268.602" style="fill:#f47676"/><polygon points="310.876 145.626 310.876 231.798 284.623 231.798 284.623 145.626 268.791 145.626 297.749 103.652 326.708 145.626 310.876 145.626" style="fill:#83db7d"/><path d="M85.07,222.568h91.622a22.288,22.288,0,0,1-.011-8H85.07C79.82,214.655,79.806,222.479,85.07,222.568Z" style="fill:#c9d4ff"/><path d="M32.416,239.543l1.1-16.81c1.191-15.312,13.231-23,27.226-31.39a8.889,8.889,0,0,1,12.422,4.245c2.8,6.643,3.353,17.1-9.575,29.485,0,0,13.2,9.811,11.416,33.327A14.159,14.159,0,0,1,60.85,271.542C44.907,272.327,30.957,257.786,32.416,239.543Z" style="fill:#ffd5bd"/><path d="M98.123,315.35H23.481a4,4,0,0,1-4-4c-.407-5.6,1.166-26.217-1.38-31.052-5.314-13.7-6.874-19.887-8.134-29.246-1.485-16.68-.243-33.344,1.061-44.385a34.15,34.15,0,0,1,7.939-18.2c7.522-8.821,16.2-19.063,20.831-24.541,3.444-3.92,9.448,1.058,6.107,5.168-4.639,5.483-13.323,15.734-20.85,24.563a26.165,26.165,0,0,0-6.082,13.952c-1.27,11.43-2.956,31.109-.356,47.305a125.288,125.288,0,0,0,6.871,22.317A26.349,26.349,0,0,1,27.481,287.4V307.35H94.123V277.329A4,4,0,0,1,95.2,274.6a35.114,35.114,0,0,0,7.86-19.611c.468-5.225,8.267-4.685,7.98.572a43.356,43.356,0,0,1-8.919,23.226V311.35A4,4,0,0,1,98.123,315.35Z" style="fill:#383a49"/><path d="M42.852,208.079a4,4,0,0,1-4-4V60.342c.12-34.259,31.187-37.636,32.9-34.588a4,4,0,0,1,1.241,2.9V171.53c-.081,5.217-7.905,5.292-8,0V33.409c-6.48,1.784-18.137,7.67-18.137,26.933V204.079A4,4,0,0,1,42.852,208.079Z" style="fill:#383a49"/><path d="M189.5,240.43H71.943a4,4,0,1,1,0-8H176.8c-5.9-6.867-5.893-20.861,0-27.722H94.036c-5.211-.071-5.3-7.91,0-8H189.5a4,4,0,0,1,.944,7.887c-1.011.261-10.122,2.935-10.122,13.973s9.111,13.713,10.149,13.981C194.938,233.7,194.155,240.414,189.5,240.43Z" style="fill:#383a49"/><path d="M189.5,204.708a4,4,0,0,1-4-4V41.441a8.8,8.8,0,0,0-8.791-8.791H68.989a4,4,0,0,1,0-8H176.707A16.809,16.809,0,0,1,193.5,41.441V200.708A4,4,0,0,1,189.5,204.708Z" style="fill:#383a49"/><path d="M73.187,273.548A4.017,4.017,0,0,1,69.3,268.6c6.936-28.377-7.505-39.858-8.123-40.332a4.023,4.023,0,0,1-.356-6.08c9.08-8.7,11.993-17.128,8.656-25.043a4.914,4.914,0,0,0-6.82-2.286A84.919,84.919,0,0,0,44.444,208.07a22.683,22.683,0,0,0-6.94,14.923L35.978,246.4A4,4,0,0,1,28,245.879l1.527-23.406A30.665,30.665,0,0,1,38.9,202.3a93.016,93.016,0,0,1,19.922-14.467,12.978,12.978,0,0,1,10.482-.847c12.342,4.94,13.18,24.051-.066,38.017,5.173,5.87,14.007,20.215,7.829,45.5A4,4,0,0,1,73.187,273.548Z" style="fill:#383a49"/><path d="M246.416,315a4,4,0,0,1-3.292-1.729L214.165,271.3a4.028,4.028,0,0,1,3.292-6.271H229.29V182.853a4,4,0,0,1,4-4h26.253a4,4,0,0,1,4,4v82.172h11.832a4.027,4.027,0,0,1,3.292,6.271L249.708,313.27A4,4,0,0,1,246.416,315Zm-21.339-41.974,21.339,30.93,21.34-30.93h-8.213a4,4,0,0,1-4-4V186.853H237.29v82.172a4,4,0,0,1-4,4Z" style="fill:#383a49"/><path d="M310.876,235.8H284.622a4,4,0,0,1-4-4V149.626H268.79a4,4,0,0,1-3.292-6.272l28.959-41.973a4.027,4.027,0,0,1,6.584,0L330,143.354a4,4,0,0,1-3.292,6.272H314.876V231.8A4,4,0,0,1,310.876,235.8Zm-22.254-8h18.254V145.626a4,4,0,0,1,4-4h8.213l-21.34-30.93-21.339,30.93h8.212a4,4,0,0,1,4,4Z" style="fill:#383a49"/></svg>